:SAMPLES-PER-SECOND 30
:FULLY-SPECIFIED
:DEGREES
244
root  -76.3747 40.9112 12.0908 -176.016 56.0573 177.311
RightUpLeg  -10.4179 -10.9313 -0.355176
RightLeg  9.09491 -22.5878 1.64837
RightFoot  -5.84748 0.100296 -2.92058
RightToes  -1.74624e-010 0 -3.6325e-017
Spine  5.90695 0.303388 3.47533
Spine1  2.63582 1.20661 -4.0129
HEad  -19.8843 -12.6967 2.88565
LeftShoulder1  -0.591845 5.01229 -33.086
LeftArm  6.54132 11.889 -37.6031
LeftForeArm  21.6651 -21.7308 -4.07235
LeftHand  -0.02293 6.00673 1.39816
RightShoulder  -1.05083 -6.32227 30.7282
RightArm  22.5265 0.373664 42.859
RightForeArm  17.7171 7.34917 9.9513
RightHand  -0.123438 3.88004 -1.82999
LeftUpLeg  0.200751 10.535 0.573889
LeftLeg  8.42182 48.9502 0.867121
LeftFoot  -4.57147 0.300705 -4.61313
LeftToes  -3.96543e-010 8.93632e-011 -2.58531e-011
245
root  -75.9409 40.8506 12.1168 -177.06 59.7307 176.247
RightUpLeg  -10.7674 -10.8883 0.0616274
RightLeg  10.4463 -18.7869 0.805595
RightFoot  -6.44862 0.115565 -3.72231
RightToes  -1.74624e-010 0 -3.6325e-017
Spine  5.73016 0.357241 3.17859
Spine1  2.73012 1.14316 -3.40368
HEad  -24.2623 -15.6695 3.55848
LeftShoulder1  -0.594778 5.0224 -33.0165
LeftArm  5.34603 10.1272 -39.8987
LeftForeArm  23.484 -23.1884 -3.8814
LeftHand  -0.0144885 6.38717 2.17897
RightShoulder  -1.11458 -6.43035 31.5415
RightArm  20.1859 -3.88772 43.5308
RightForeArm  21.1908 3.7417 10.0311
RightHand  -0.0980092 3.39135 -1.56526
LeftUpLeg  1.22665 13.3312 1.29992
LeftLeg  10.0562 41.778 1.34147
LeftFoot  -5.01568 0.433769 -7.30959
LeftToes  -3.96543e-010 8.93632e-011 -2.58531e-011
246
root  -75.4369 40.7641 12.1441 -178.662 63.4122 175.271
RightUpLeg  -10.1329 -10.4686 0.286054
RightLeg  11.4614 -15.5084 0.522955
RightFoot  -7.22512 0.106232 -4.31795
RightToes  -1.74624e-010 0 -3.6325e-017
Spine  5.88236 0.15727 4.24371
Spine1  2.94408 1.23618 -4.40983
HEad  -20.7611 -12.3793 2.58386
LeftShoulder1  -0.628775 5.11546 -32.8536
LeftArm  3.28243 9.41802 -40.9526
LeftForeArm  24.9721 -26.6898 -4.38654
LeftHand  -0.0272657 5.31573 2.87771
RightShoulder  -1.16818 -6.4815 32.6638
RightArm  18.8333 -8.83285 43.9904
RightForeArm  23.2601 2.05907 9.56957
RightHand  -0.225922 4.08214 -2.89931
LeftUpLeg  2.64167 19.448 2.40599
LeftLeg  12.2847 31.6468 2.7203
LeftFoot  -5.53048 0.571031 -10.5859
LeftToes  -3.96543e-010 8.93632e-011 -2.58531e-011
247
root  -74.9037 40.6311 12.1786 -179.761 66.7477 174.674
RightUpLeg  -9.73354 -9.74904 0.652367
RightLeg  12.8893 -13.2127 0.419655
RightFoot  -8.51739 0.0554147 -4.55454
RightToes  -1.74624e-010 0 -3.6325e-017
Spine  5.92972 0.0375425 5.30394
Spine1  3.1227 1.27705 -4.50989
HEad  -20.1028 -11.8249 1.45278
LeftShoulder1  -0.747565 5.39202 -33.4157
LeftArm  1.64562 9.23841 -40.9726
LeftForeArm  25.4944 -31.4319 -5.45728
LeftHand  -0.0287223 5.28057 3.4893
RightShoulder  -1.26556 -6.68608 33.22
RightArm  18.2525 -14.5377 43.3976
RightForeArm  20.9864 3.48875 9.12032
RightHand  -0.46484 5.56619 -5.23585
LeftUpLeg  2.83691 26.7665 3.60558
LeftLeg  15.9822 20.1929 5.2954
LeftFoot  -5.87905 0.680893 -13.4062
LeftToes  -3.96543e-010 8.93632e-011 -2.58531e-011
248
root  -74.3821 40.4978 12.2616 179.3 70.0743 174.139
RightUpLeg  -9.3402 -9.01247 1.15387
RightLeg  14.0594 -10.7339 0.343145
RightFoot  -9.70529 -0.00226957 -4.42485
RightToes  -1.74624e-010 0 -3.6325e-017
Spine  5.92153 0.0934065 5.98611
Spine1  3.19265 1.41959 -4.24541
HEad  -20.5593 -11.2755 0.814507
LeftShoulder1  -0.862056 5.66217 -33.768
LeftArm  0.0486633 9.24083 -41.4044
LeftForeArm  25.0654 -35.8166 -6.59883
LeftHand  -0.037468 4.92995 4.2081
RightShoulder  -1.26627 -6.69455 33.1339
RightArm  18.4801 -19.773 42.6204
RightForeArm  19.0318 6.94299 8.56131
RightHand  -0.128375 5.19213 -1.74142
LeftUpLeg  1.48875 26.6938 4.35701
LeftLeg  22.0257 15.9479 7.48276
LeftFoot  -5.08204 0.783528 -13.8932
LeftToes  -3.96543e-010 8.93632e-011 -2.58531e-011
249
root  -73.8618 40.3308 12.3675 179.845 72.6329 174.729
RightUpLeg  -9.30135 -8.60825 2.06617
RightLeg  15.241 -8.7447 0.353774
RightFoot  -10.9696 -0.0600301 -4.7285
RightToes  -1.74624e-010 0 -3.6325e-017
Spine  5.17655 -0.121302 7.24024
Spine1  3.65311 1.37944 -4.53939
HEad  -19.6558 -10.4208 -0.225188
LeftShoulder1  -0.857159 5.67263 -33.353
LeftArm  -1.32219 9.5357 -42.0009
LeftForeArm  24.9431 -39.7402 -7.71849
LeftHand  -0.0705739 3.6955 3.60222
RightShoulder  -1.21847 -6.58446 32.996
RightArm  20.0778 -23.1823 42.2712
RightForeArm  16.7751 9.5891 8.25429
RightHand  -0.0430284 6.19837 -0.713932
LeftUpLeg  -2.28907 21.3348 4.6137
LeftLeg  30.713 14.5355 9.49732
LeftFoot  -1.89236 0.67902 -8.27995
LeftToes  -3.96543e-010 8.93632e-011 -2.58531e-011
250
root  -73.3516 40.1595 12.4545 178.96 75.4947 174.897
RightUpLeg  -7.98335 -8.1768 2.62402
RightLeg  16.3158 -6.74557 0.437319
RightFoot  -12.343 -0.128472 -5.29368
RightToes  -1.74624e-010 0 -3.6325e-017
Spine  6.16656 -0.242379 8.02805
Spine1  3.37437 1.48353 -4.3987
HEad  -19.6344 -9.61835 -0.723091
LeftShoulder1  -0.875993 5.74775 -32.8641
LeftArm  -1.73508 9.59956 -42.5338
LeftForeArm  24.7187 -42.0717 -8.45939
LeftHand  -0.0804683 3.46098 3.90044
RightShoulder  -1.27143 -6.70578 33.1528
RightArm  21.7654 -24.5531 41.4914
RightForeArm  15.0372 10.7854 8.15835
RightHand  -0.180998 7.72135 -2.01229
LeftUpLeg  -4.79746 16.7773 4.93293
LeftLeg  38.2173 10.9192 9.33982
LeftFoot  0.835743 0.393889 -3.59432
LeftToes  -3.96543e-010 8.93632e-011 -2.58531e-011
251
root  -72.8087 40.027 12.4949 178.914 78.1629 175.395
RightUpLeg  -7.26447 -7.76203 3.05209
RightLeg  17.4424 -4.77873 0.623119
RightFoot  -13.2751 -0.174793 -5.01502
RightToes  -1.74624e-010 0 -3.6325e-017
Spine  6.20783 -0.229559 9.12631
Spine1  3.50145 1.7058 -4.3291
HEad  -18.5772 -9.48489 -1.15104
LeftShoulder1  -0.853271 5.70253 -32.6349
LeftArm  -2.19286 9.29403 -43.0976
LeftForeArm  24.7816 -42.0831 -8.46466
LeftHand  -0.0782867 3.51597 3.85719
RightShoulder  -1.33335 -6.84084 33.4089
RightArm  22.2175 -23.8265 40.9178
RightForeArm  16.8321 10.5983 8.19427
RightHand  0.0445213 4.62681 0.473778
LeftUpLeg  -7.65186 12.7711 4.86042
LeftLeg  43.3544 3.84771 4.29472
LeftFoot  -1.11187 0.303979 -3.35226
LeftToes  -3.96543e-010 8.93632e-011 -2.58531e-011
252
root  -72.2112 39.9692 12.4927 175.645 81.1292 172.435
RightUpLeg  -6.16961 -7.53522 2.78977
RightLeg  17.9019 -2.04462 0.908049
RightFoot  -14.1035 -0.219458 -5.15634
RightToes  -1.74624e-010 0 -3.6325e-017
Spine  5.91208 0.0274156 9.13223
Spine1  3.68366 1.90685 -3.61317
HEad  -17.9357 -8.56261 -2.49669
LeftShoulder1  -0.899019 5.77872 -33.3461
LeftArm  -1.81922 8.85848 -42.717
LeftForeArm  23.9487 -40.3903 -7.98494
LeftHand  -0.0714065 3.82157 4.00382
RightShoulder  -1.28795 -6.75589 33.0584
RightArm  20.9765 -21.2472 41.1455
RightForeArm  19.7768 9.69356 8.13199
RightHand  0.264755 0.231019 5.312
LeftUpLeg  -10.1514 9.83602 4.00848
LeftLeg  46.1601 0.254132 0.741425
LeftFoot  -2.72543 0.363178 -4.61222
LeftToes  -3.96543e-010 8.93632e-011 -2.58531e-011
253
root  -71.5479 39.9845 12.4921 166.348 84.3952 163.371
RightUpLeg  -4.68356 -7.47425 2.17033
RightLeg  17.6211 1.59798 1.56253
RightFoot  -14.5304 -0.239293 -5.06406
RightToes  -1.74624e-010 0 -3.6325e-017
Spine  6.10439 0.415927 9.74751
Spine1  3.02172 2.48206 -4.44186
HEad  -17.2404 -8.22165 -3.31278
LeftShoulder1  -0.892185 5.76789 -33.2321
LeftArm  -1.06974 9.1355 -42.4676
LeftForeArm  23.4305 -37.5062 -7.16571
LeftHand  -0.0587522 4.09042 3.65725
RightShoulder  -1.37812 -6.95708 33.3732
RightArm  19.5253 -18.1263 41.3539
RightForeArm  21.0988 9.4529 7.79533
RightHand  0.133941 -2.98254 6.86455
LeftUpLeg  -12.2413 7.53396 2.87786
LeftLeg  46.3981 1.20504 1.75918
LeftFoot  -4.04673 0.357974 -5.20629
LeftToes  -3.96543e-010 8.93632e-011 -2.58531e-011
254
root  -70.8555 40.0354 12.5017 133.602 86.9819 130.689
RightUpLeg  -3.05966 -7.48222 1.29992
RightLeg  16.6553 4.90659 1.92215
RightFoot  -14.7732 -0.253409 -5.12704
RightToes  -1.74624e-010 0 -3.6325e-017
Spine  5.69959 0.888089 9.63253
Spine1  3.20101 2.96248 -5.09471
HEad  -17.2169 -7.06257 -4.08192
LeftShoulder1  -0.903505 5.79437 -33.2698
LeftArm  0.0321595 9.37907 -41.9911
LeftForeArm  24.1864 -34.1193 -6.19977
LeftHand  -0.0529051 3.65638 2.40121
RightShoulder  -1.38827 -6.95882 33.6391
RightArm  18.3935 -13.8017 42.0853
RightForeArm  20.3645 8.72429 7.86185
RightHand  0.0886201 -2.41275 4.87429
LeftUpLeg  -14.553 5.89758 1.68604
LeftLeg  44.6709 2.2335 2.74957
LeftFoot  -4.96837 0.259882 -4.12703
LeftToes  -3.96543e-010 8.93632e-011 -2.58531e-011
